<svg xmlns="http://www.w3.org/2000/svg" width="240" height="160" viewBox="0 0 240 160">
  <defs>
    <linearGradient id="bg" x1="0" y1="0" x2="240" y2="160">
      <stop offset="0%" stop-color="#eff6ff"/>
      <stop offset="100%" stop-color="#dbeafe"/>
    </linearGradient>
  </defs>
  <rect width="240" height="160" rx="0" fill="url(#bg)"/>
  <rect x="14" y="14" width="212" height="132" rx="6" fill="#ffffff" stroke="#bfdbfe" stroke-width="1"/>

  <rect x="14" y="14" width="212" height="28" rx="6" fill="#2563eb"/>
  <rect x="14" y="36" width="212" height="6" fill="#2563eb"/>
  <circle cx="24" cy="22" r="4" fill="#ef4444"/>
  <circle cx="36" cy="22" r="4" fill="#f59e0b"/>
  <circle cx="48" cy="22" r="4" fill="#22c55e"/>

  <rect x="26" y="52" width="88" height="10" rx="3" fill="#2563eb" opacity="0.85"/>
  <rect x="26" y="68" width="188" height="6" rx="3" fill="#bfdbfe"/>
  <rect x="26" y="80" width="140" height="6" rx="3" fill="#bfdbfe"/>
  <rect x="26" y="92" width="100" height="6" rx="3" fill="#bfdbfe"/>

  <rect x="26" y="108" width="188" height="10" rx="3" fill="#2563eb" opacity="0.85"/>
  <rect x="26" y="124" width="80" height="6" rx="3" fill="#bfdbfe"/>

  <rect x="176" y="118" width="38" height="16" rx="5" fill="#22c55e"/>
  <path d="M184 126l4 4 8-8" stroke="white" stroke-width="2" fill="none" stroke-linecap="round" stroke-linejoin="round"/>
</svg>
